<svg width="24" height="24" viewBox="0 0 24 24" fill="none" xmlns="http://www.w3.org/2000/svg"><path d="M20 9.48799L12 3.26631L4 9.48799V19.9997C4 20.2649 4.10543 20.5192 4.29297 20.7067C4.48051 20.8943 4.73478 20.9997 5 20.9997H19C19.2652 20.9997 19.5195 20.8943 19.707 20.7067C19.8946 20.5192 20 20.2649 20 19.9997V9.48799ZM22 19.9997C22 20.7954 21.6837 21.5582 21.1211 22.1208C20.5585 22.6834 19.7957 22.9997 19 22.9997H5C4.20435 22.9997 3.44152 22.6834 2.87891 22.1208C2.3163 21.5582 2 20.7954 2 19.9997V8.99971C2 8.69126 2.14236 8.40011 2.38574 8.21065L11.3857 1.21065C11.7469 0.929784 12.2531 0.929784 12.6143 1.21065L21.6143 8.21065C21.8576 8.40011 22 8.69126 22 8.99971V19.9997Z" fill="#6B6B75"/><path d="M14 21.9997V12.9997H10V21.9997C10 22.552 9.55228 22.9997 9 22.9997C8.44772 22.9997 8 22.552 8 21.9997V11.9997C8 11.4474 8.44772 10.9997 9 10.9997H15C15.5523 10.9997 16 11.4474 16 11.9997V21.9997C16 22.552 15.5523 22.9997 15 22.9997C14.4477 22.9997 14 22.552 14 21.9997Z" fill="#6B6B75"/></svg>
